<?xml version="1.0" standalone="no"?>
<!DOCTYPE svg PUBLIC "-//W3C//DTD SVG 20010904//EN"
 "http://www.w3.org/TR/2001/REC-SVG-20010904/DTD/svg10.dtd">
<svg version="1.0" xmlns="http://www.w3.org/2000/svg"
 width="512.000000pt" height="384.000000pt" viewBox="0 0 512.000000 384.000000"
 preserveAspectRatio="xMidYMid meet">

<g transform="translate(0.000000,384.000000) scale(0.100000,-0.100000)"
fill="#000000" stroke="none">
<path d="M2515 2954 c-128 -20 -234 -74 -320 -165 -89 -95 -110 -161 -109
-344 0 -114 4 -140 28 -214 20 -57 31 -79 37 -70 5 8 9 21 9 30 0 9 8 26 18
38 l17 21 72 -54 c84 -63 156 -93 264 -107 143 -20 282 17 397 103 l66 50 18
-22 c10 -12 18 -36 18 -53 0 -20 3 -28 10 -21 23 23 52 137 61 239 18 204 -14
314 -122 416 -69 66 -149 111 -234 133 -66 16 -183 27 -230 20z"/>
<path d="M1986 2314 c-9 -8 -16 -31 -16 -50 0 -42 62 -236 90 -282 22 -36 60
-58 84 -49 17 7 17 11 -16 172 -25 125 -43 169 -80 200 -35 29 -41 30 -62 9z"/>
<path d="M3126 2280 c-43 -52 -113 -327 -89 -351 14 -14 67 13 87 44 21 33 83
206 91 254 13 81 -39 112 -89 53z"/>
<path d="M2180 1950 c0 -37 59 -205 88 -250 53 -83 135 -151 224 -185 104 -39
253 3 352 99 74 73 178 318 147 349 -9 9 -20 7 -49 -11 -20 -12 -60 -34 -88
-48 -47 -22 -57 -23 -100 -14 -100 23 -124 -8 -124 -158 0 -104 -7 -122 -46
-122 -38 0 -46 22 -39 107 8 90 -6 157 -35 173 -11 6 -47 8 -89 4 -70 -7 -71
-7 -134 35 -70 45 -107 53 -107 21z m423 -377 c23 3 52 9 65 13 34 10 27 -12
-9 -26 -44 -19 -111 -16 -158 5 -54 24 -42 38 15 18 28 -9 62 -13 87 -10z"/>
<path d="M2206 1685 c-22 -33 -80 -61 -288 -141 -204 -78 -313 -132 -356 -177
-44 -46 -98 -139 -122 -213 l-22 -64 34 -37 c125 -138 196 -183 327 -204 57
-10 87 -10 140 0 87 17 208 56 301 98 168 76 339 100 484 68 69 -15 243 -83
271 -105 25 -19 197 -62 271 -67 140 -10 250 36 364 151 35 37 70 66 77 66 18
0 17 8 -11 94 -60 189 -101 223 -480 387 -175 76 -220 103 -232 141 -5 16 -11
12 -39 -25 -19 -25 -61 -65 -95 -90 -128 -97 -260 -118 -380 -60 -76 36 -155
100 -197 161 l-30 42 -17 -25z m-176 -759 c0 -2 -8 -10 -17 -17 -16 -13 -17
-12 -4 4 13 16 21 21 21 13z m-30 -46 c0 -5 -4 -10 -10 -10 -5 0 -10 5 -10 10
0 6 5 10 10 10 6 0 10 -4 10 -10z"/>
</g>
</svg>
